<?xml version="1.0" encoding="UTF-8"?>
<!DOCTYPE svg PUBLIC "-//W3C//DTD SVG 1.1//EN" "http://www.w3.org/Graphics/SVG/1.1/DTD/svg11.dtd">
<!-- Creator: CorelDRAW 2020 (64-Bit Evaluation Version) -->
<svg xmlns="http://www.w3.org/2000/svg" xml:space="preserve" width="25.4mm" height="25.4mm" version="1.1" style="shape-rendering:geometricPrecision; text-rendering:geometricPrecision; image-rendering:optimizeQuality; fill-rule:evenodd; clip-rule:evenodd"
viewBox="0 0 2540 2540"
 xmlns:xlink="http://www.w3.org/1999/xlink"
 xmlns:xodm="http://www.corel.com/coreldraw/odm/2003">
 <defs>
  <style type="text/css">
   <![CDATA[
    .fil0 {fill:#FEFEFE}
   ]]>
  </style>
 </defs>
 <g id="Layer_x0020_1">
  <metadata id="CorelCorpID_0Corel-Layer"/>
  <g id="_1719786013360">
   <path class="fil0" d="M-2654.6 3396.38c-0.73,3.87 0.25,15.41 0.07,20.24 -1.38,36.26 -17.21,82.36 -39.96,109.68 -33.54,40.27 -71.4,47.37 -123.26,46.68 -40.84,-0.55 -88.34,-27.06 -107,-62.81 -18.14,-34.72 -17.46,-47.62 -23.41,-80.83 -1.85,-10.32 -3.63,-49.72 -1.33,-62.21 1.22,-6.65 0.01,-12.78 0.77,-19.4l10.6 -53.29c13.62,-40.74 35.53,-75.8 77.23,-92.58 61.56,-24.77 144.27,-10.78 179.97,54.39 10.92,19.93 16.77,39.76 21.41,62.66 6.63,32.65 3.6,48.22 5.26,58.63 2.65,16.66 2.09,6.02 -0.35,18.84zm-165.1 -307.68l31.68 0c28.79,1.73 60.94,7.5 83.19,14.92 89.25,29.75 136.17,101.09 155.49,189.18 13.05,59.49 13.01,131.02 0,190.34 -8.32,37.95 -19.6,64.33 -41.03,96.84 -34.08,51.73 -103.31,84.64 -178.25,92.13l-65.26 0c-88.25,-8.89 -172.8,-54.78 -207.22,-148.15 -12.54,-34.04 -22.18,-79.26 -22.06,-115.81 0.15,-42.5 -1.5,-85.85 11.56,-127.99 10.58,-34.16 20.44,-66.15 42.52,-95.35 42,-55.52 110.69,-94.43 181.31,-94.43 5.42,0 1.68,-1.15 8.07,-1.68z"/>
   <path class="fil0" d="M-2415.85 3653.62l110.96 0c12.81,-53.15 32.81,-117.63 47.06,-173.2 3.12,-12.17 14.95,-49.35 15.15,-58.82 4.26,3.04 7.9,21.39 9.42,27.57l56.16 204.45 109.28 0 116.53 -405.05 -111.49 -0.15 -52.79 224.63c-1.73,6.87 -4.62,27.5 -9.41,30.93 -0.17,-8.06 -4.96,-23.17 -7.06,-31.61l-23.21 -96.17c-4.61,-18.42 -30.04,-117.22 -30.26,-127.78l-110.97 0c-0.19,8.89 -4.51,23.14 -6.32,32.35 -2.05,10.39 -4.29,21.78 -6.78,31.9l-27.37 127.31c-2.01,10.12 -4.45,21.47 -6.96,31.71 -2.16,8.82 -6.36,25.12 -6.37,33.97 -5.28,-7.63 -45.89,-176.24 -50.13,-191.98l-15.44 -65.26 -114.33 0c14.16,59.14 41.13,139.35 57.14,201.78 4.21,16.42 9.55,33.47 14.15,49.75 5.79,20.54 42.84,144.05 43.04,153.67z"/>
   <path class="fil0" d="M-934.61 3411.51l-164.77 0c6.96,-15.2 -2.69,-24.67 23.53,-60.53 36.13,-49.38 141.24,-34.28 141.24,60.53zm110.96 32.47l0 34.78 -277.41 0c0,40.04 18.85,81.43 58.18,94.82 20.36,6.93 47.23,6.56 66.78,-1.8 27.35,-11.68 28.21,-21.43 36.44,-39.21 16.63,0 101.12,-1.91 110,1.21 0.51,12.12 -23.36,54.51 -32.24,64.77 -17.23,19.91 -30.14,32.39 -53.07,44.45 -48.48,25.51 -114.95,27.11 -166.97,11.67 -53.49,-15.87 -81.09,-41.41 -106,-90.72 -19.9,-39.39 -26.98,-123.11 -18.09,-168.3 23.37,-118.73 110.35,-170.65 229.21,-155.46 46.62,5.95 96.66,34.88 119.01,77.7 22.33,42.76 30.81,81.16 34.16,126.09z"/>
   <path class="fil0" d="M-1511.3 3305.59l0 -57.17 -102.56 0 0 405.2 107.6 0c0,-66.69 0,-133.38 0,-200.08 0,-32.78 -2.97,-59.58 11.19,-88 24.64,-49.44 118.54,-47.86 132.81,-5.55 9.56,28.37 7.32,61.54 7.32,93.55 0,66.7 0,133.39 0,200.08l107.6 0 0 -280.78c0,-84.27 -52.51,-133.36 -133.07,-135.68l-51.56 6.53c-11.55,3.14 -22.35,7.12 -33.28,13.8 -32.97,20.15 -35.2,35.8 -46.05,48.1z"/>
   <polygon class="fil0" points="-1924.91,3653.62 -1824.03,3653.62 -1816.67,3652.99 -1815.39,3645.24 -1815.62,3108.88 -1816.25,3101.52 -1824,3100.24 -1924.91,3100.47 "/>
   <polygon class="fil0" points="-1770.23,3653.62 -1662.62,3653.62 -1662.62,3248.42 -1770.23,3248.42 "/>
   <polygon class="fil0" points="-1770.23,3192.94 -1769.6,3200.3 -1761.85,3201.58 -1662.62,3201.35 -1662.62,3100.47 -1770.23,3100.47 "/>
  </g>
 </g>
</svg>
