<?xml version="1.0" encoding="UTF-8"?>
<!DOCTYPE svg PUBLIC "-//W3C//DTD SVG 1.1//EN" "http://www.w3.org/Graphics/SVG/1.1/DTD/svg11.dtd">
<!-- Creator: CorelDRAW 2021 (64-Bit) -->
<svg xmlns="http://www.w3.org/2000/svg" xml:space="preserve" width="25.4mm" height="25.4mm" version="1.1" style="shape-rendering:geometricPrecision; text-rendering:geometricPrecision; image-rendering:optimizeQuality; fill-rule:evenodd; clip-rule:evenodd"
viewBox="0 0 2540 2540"
 xmlns:xlink="http://www.w3.org/1999/xlink"
 xmlns:xodm="http://www.corel.com/coreldraw/odm/2003">
 <defs>
  <style type="text/css">
   <![CDATA[
    .str0 {stroke:white;stroke-width:67.73;stroke-miterlimit:22.9256}
    .fil2 {fill:#224061}
    .fil0 {fill:#2C4F73}
    .fil1 {fill:white}
   ]]>
  </style>
 </defs>
 <g id="Layer_x0020_1">
  <metadata id="CorelCorpID_0Corel-Layer"/>
  <rect class="fil0 str0" x="-0.01" y="0" width="2540" height="2540" rx="401.8" ry="463.02"/>
  <circle class="fil1" cx="1270" cy="1270" r="808.99"/>
  <path class="fil2" d="M1679.38 1778.2c-21.46,-22.05 -34.69,-52.16 -34.69,-85.36 0,-67.58 54.78,-122.36 122.36,-122.36 26.15,0 50.39,8.22 70.28,22.19 54.24,-95.15 85.23,-205.3 85.23,-322.67 0,-360.41 -292.17,-652.57 -652.56,-652.57 -93.67,0 -182.73,19.75 -263.25,55.28 64.84,42.05 107.73,115.09 107.73,198.14 0,130.34 -105.67,236.01 -236.01,236.01 -84.67,0 -158.93,-44.59 -200.57,-111.56 -38.8,83.48 -60.46,176.56 -60.46,274.7 0,360.4 292.16,652.56 652.56,652.56 155.03,0 297.43,-54.07 409.38,-144.36z"/>
 </g>
</svg>
